# xmcd
#
# Track frame offsets: 
#        150
#        6492
#        16380
#        23405
#        32483
#        39385
#        45105
#        50892
#        60575
#        69019
#        81183
#        90701
#        100728
#        109851
#        121680
#        130428
#        146310
#        159036
#        171896
#        189925
#        211658
#        226973
#        238593
#        245564
#        255226
#        266318
#        281795
#        299942
#        314233
#
# Disc length: 4408 seconds
#
# Revision: 0
# Processed by: cddbd v1.5.2PL0 Copyright (c) Steve Scherf et al.
# Submitted via: ExactAudioCopy v0.99pb4
#
DISCID=8311361d
DTITLE=Replacements - Boink!! Box Set Disc 1
DYEAR=2000
DGENRE=Ambient
TTITLE0=Careless
TTITLE1=Otto
TTITLE2=More Cigarettes
TTITLE3=I Hate Music
TTITLE4=Shutup
TTITLE5=Johnny's Gonna Die
TTITLE6=Careless
TTITLE7=Raised in the City
TTITLE8=Somethin' to Dü
TTITLE9=Takin' a Ride
TTITLE10=Love You Till Friday
TTITLE11=Love You Till Friday
TTITLE12=Like You
TTITLE13=If Only You Were Lonely
TTITLE14=Lookin' for Ya
TTITLE15=Don't Get Married
TTITLE16=Shoot Me, Kill Me
TTITLE17=Hey, Good Lookin'
TTITLE18=20th Century Boy
TTITLE19=Sixteen Blue
TTITLE20=Who's Gonna Take Us Alive
TTITLE21=Temptation Eyes
TTITLE22=Street Girl
TTITLE23=Street Girl
TTITLE24=Gary's Got a Boner
TTITLE25=Perfectly Lethal
TTITLE26=Nowhere is My Home
TTITLE27=Can't Hardly Wait (acoustic)
TTITLE28=Can't Hardly Wait (electric)
EXTD=
EXTT0=
EXTT1=
EXTT2=
EXTT3=
EXTT4=
EXTT5=
EXTT6=
EXTT7=
EXTT8=
EXTT9=
EXTT10=
EXTT11=
EXTT12=
EXTT13=
EXTT14=
EXTT15=
EXTT16=
EXTT17=
EXTT18=
EXTT19=
EXTT20=
EXTT21=
EXTT22=
EXTT23=
EXTT24=
EXTT25=
EXTT26=
EXTT27=
EXTT28=
PLAYORDER=
